<?xml version="1.0" encoding="UTF-8" standalone="no"?>
<svg
   viewBox="0 0 64 64"
   enable-background="new 0 0 64 64"
   version="1.1"
   id="svg1"
   sodipodi:docname="blue_checkmark.svg"
   inkscape:version="1.3.2 (091e20e, 2023-11-25, custom)"
   xmlns:inkscape="http://www.inkscape.org/namespaces/inkscape"
   xmlns:sodipodi="http://sodipodi.sourceforge.net/DTD/sodipodi-0.dtd"
   xmlns="http://www.w3.org/2000/svg"
   xmlns:svg="http://www.w3.org/2000/svg">
  <defs
     id="defs1" />
  <sodipodi:namedview
     id="namedview1"
     pagecolor="#ffffff"
     bordercolor="#000000"
     borderopacity="0.25"
     inkscape:showpageshadow="2"
     inkscape:pageopacity="0.0"
     inkscape:pagecheckerboard="0"
     inkscape:deskcolor="#d1d1d1"
     inkscape:zoom="28.421875"
     inkscape:cx="32.017592"
     inkscape:cy="32.017592"
     inkscape:window-width="3840"
     inkscape:window-height="2054"
     inkscape:window-x="-11"
     inkscape:window-y="-11"
     inkscape:window-maximized="1"
     inkscape:current-layer="svg1" />
  <path
     d="M32,2C15.431,2,2,15.432,2,32c0,16.568,13.432,30,30,30c16.568,0,30-13.432,30-30C62,15.432,48.568,2,32,2z M25.025,50  l-0.02-0.02L24.988,50L11,35.6l7.029-7.164l6.977,7.184l21-21.619L53,21.199L25.025,50z"
     fill="#1e88e5"
     id="path1"
     inkscape:label="path1"
     style="fill:#1a73e8;fill-opacity:1" />
  <path
     style="fill:#ffffff;stroke-width:0.0351842"
     d="m 18.021203,42.797476 c -3.837049,-3.950025 -6.971802,-7.193965 -6.966118,-7.208754 0.01005,-0.02615 6.514324,-6.65666 6.827416,-6.959924 l 0.156771,-0.15185 3.474199,3.575291 c 1.91081,1.96641 3.487974,3.570531 3.504809,3.564714 0.01684,-0.0058 1.230453,-1.245658 2.696929,-2.755204 1.466476,-1.509545 6.180569,-6.362321 10.475763,-10.783947 4.295194,-4.421626 7.812872,-8.039319 7.817062,-8.039319 0.01762,0 6.944138,7.143041 6.944138,7.161216 0,0.02044 -27.899399,28.754644 -27.934865,28.77073 -0.01081,0.0049 -3.159055,-3.222927 -6.996104,-7.172953 z"
     id="path2" />
  <path
     style="fill:#1a73e8;fill-opacity:1;stroke-width:0.0351842"
     d="M 30.680594,61.953457 C 29.107907,61.868642 27.912059,61.73231 26.545132,61.48201 22.028767,60.654999 17.717106,58.762619 14.020891,55.985142 8.5649187,51.885314 4.6735724,46.087463 2.976287,39.529412 1.3976953,33.429975 1.7814783,26.955728 4.0691734,21.092908 7.2748167,12.877605 14.015414,6.4374968 22.37713,3.6011011 28.111544,1.6559183 34.409964,1.5031257 40.23782,3.167821 c 4.319986,1.2339803 8.25694,3.4035291 11.709062,6.4525513 1.056092,0.9327737 2.465735,2.4143917 3.383345,3.5560987 5.337737,6.641307 7.587825,15.034997 6.290996,23.467839 -1.17444,7.636991 -5.382298,14.639956 -11.604178,19.312364 -5.282769,3.967173 -11.584049,6.056128 -18.14019,6.013706 -0.551511,-0.0036 -1.089829,-0.01118 -1.196261,-0.01692 z M 39.023017,35.61933 c 7.690062,-7.91723 13.981931,-14.40641 13.981931,-14.420399 0,-0.02294 -6.712985,-6.943246 -6.921715,-7.135486 l -0.08751,-0.08059 -10.477972,10.78686 c -5.762886,5.932773 -10.497463,10.782233 -10.521284,10.776577 -0.02382,-0.0057 -1.479494,-1.490657 -3.234828,-3.300003 -1.755335,-1.809346 -3.313544,-3.413226 -3.462686,-3.564179 l -0.271168,-0.274459 -3.525285,3.593839 -3.525285,3.593839 0.536679,0.559293 c 2.082933,2.1707 13.45702,13.856547 13.488228,13.857937 0.02143,9.53e-4 6.330829,-6.475998 14.020891,-14.393229 z"
     id="path3" />
</svg>
